# xmcd
#
# Track frame offsets:
#	150
#	9798
#	20312
#	31503
#	45635
#	55967
#	67471
#	77174
#	89107
#	98943
#	110357
#	122303
#	136077
#	148201
#	158196
#	167920
#	179075
#	192564
#	201474
#	211032
#	223733
#	235005
#	246186
#	256949
#	270223
#	283156
#
# Disc length: 3946 seconds
#
# Revision: 0
# Processed by: cddbd v1.4PL0 Copyright (c) Steve Scherf et al.
# Submitted via: EasyCDDAExtractor 4.5.2.1
#
DISCID=7b0f681a
DTITLE=Various Artist - Mercury Doo-Wop Vol #1
DYEAR=1900
DGENRE=Oldies
TTITLE0=Admirations - Bells Of Rosa Rita
TTITLE1=Empires - I Want To Know
TTITLE2=Presto's (aka Empires) - Looking For Love
TTITLE3=Wini Brown and Her Boyfriends - Here In My Heart
TTITLE4=Cadillacs - I'm Willing
TTITLE5=Five Dreams - All Night Long
TTITLE6=Accents - Tell Me Now
TTITLE7=Bachelors - Yesterday's Roses
TTITLE8=Derbys - Night After Night
TTITLE9=Empires - By The Riverside
TTITLE10=Wini Brown and Her Boyfriends - Your Happiness Is Mine
TTITLE11=Chestnuts - Dont Go
TTITLE12=Empires - Tell Me, Pretty Baby
TTITLE13=Don Angelo - I'm Sorry Dear
TTITLE14=Five Dreams - You Are My Only
TTITLE15=Empires - My First Discovery
TTITLE16=Wini Brown and Her Boyfrends - Be Anything
TTITLE17=Derbys - Just Leave Me Alone
TTITLE18=Empires - Don't Touch My Girl
TTITLE19=Bachelors - Hereafter
TTITLE20=Accents - Enchanted Garden
TTITLE21=Admirations - To The Aisle
TTITLE22=Presto's (aka Empires) - Till We Meet Again
TTITLE23=Chestnuts - I Wanna Come Home
TTITLE24=Wini Brown and Her Boyfriends - Heaven Knows Why
TTITLE25=Empires - Shirley
EXTD=
EXTT0=
EXTT1=
EXTT2=
EXTT3=
EXTT4=
EXTT5=
EXTT6=
EXTT7=
EXTT8=
EXTT9=
EXTT10=
EXTT11=
EXTT12=
EXTT13=
EXTT14=
EXTT15=
EXTT16=
EXTT17=
EXTT18=
EXTT19=
EXTT20=
EXTT21=
EXTT22=
EXTT23=
EXTT24=
EXTT25=
PLAYORDER=
